<?xml version="1.0" encoding="UTF-8"?>
<!DOCTYPE svg PUBLIC "-//W3C//DTD SVG 1.1//EN" "http://www.w3.org/Graphics/SVG/1.1/DTD/svg11.dtd">
<svg version="1.1" xmlns="http://www.w3.org/2000/svg" xmlns:xlink="http://www.w3.org/1999/xlink" x="0" y="0" width="546.292" height="104.488" viewBox="0, 0, 546.292, 104.488">
  <g id="Layer_1">
    <g>
      <path d="M158.148,60.965 C153.86,65.194 148.319,67.158 142.302,67.158 C126.812,67.158 120.259,56.495 120.201,45.652 C120.139,34.749 127.229,23.67 142.302,23.67 C147.963,23.67 153.324,25.812 157.612,30.041 L152.371,35.109 C149.631,32.426 145.938,31.176 142.302,31.176 C132.234,31.176 127.885,38.682 127.946,45.652 C128.004,52.564 131.995,59.772 142.302,59.772 C145.938,59.772 150.047,58.282 152.788,55.542 z" fill="#FFFFFF"/>
      <path d="M193.669,66.205 L162.453,66.205 L162.453,24.503 L193.669,24.503 L193.669,32.129 L170.256,32.129 L170.256,41.719 L192.836,41.719 L192.836,49.048 L170.256,49.048 L170.256,58.46 L193.669,58.46 z" fill="#FFFFFF"/>
      <path d="M228.415,24.442 L236.277,24.442 L236.277,66.206 L231.394,66.206 L231.394,66.264 L209.471,38.088 L209.471,66.206 L201.606,66.206 L201.606,24.504 L207.981,24.504 L228.415,50.36 z" fill="#FFFFFF"/>
      <path d="M254.286,31.651 L241.06,31.651 L241.06,24.504 L275.376,24.504 L275.376,31.651 L262.147,31.651 L262.147,66.206 L254.286,66.206 z" fill="#FFFFFF"/>
      <path d="M311.249,66.205 L280.032,66.205 L280.032,24.503 L311.249,24.503 L311.249,32.129 L287.836,32.129 L287.836,41.719 L310.415,41.719 L310.415,49.048 L287.836,49.048 L287.836,58.46 L311.249,58.46 z" fill="#FFFFFF"/>
      <path d="M325.26,31.832 L325.26,45.177 L337.236,45.177 C342.237,45.177 344.383,41.839 344.383,38.504 C344.383,35.166 342.179,31.832 337.236,31.832 z M354.331,66.205 L344.977,66.205 L332.824,52.266 L325.26,52.266 L325.26,66.205 L317.396,66.205 L317.396,24.441 C324.006,24.441 330.62,24.503 337.236,24.503 C347.065,24.561 352.247,31.114 352.247,38.323 C352.247,44.042 349.627,49.823 341.7,51.433 L354.331,65.669 z" fill="#FFFFFF"/>
      <path d="M377.465,46.725 L389.262,46.725 C399.33,46.725 399.269,31.948 389.262,31.948 L377.465,31.948 z M389.262,53.934 L377.465,53.934 L377.465,66.205 L369.6,66.205 L369.6,24.503 C376.156,24.503 382.709,24.442 389.262,24.442 C409.635,24.442 409.696,53.934 389.262,53.934" fill="#FFFFFF"/>
      <path d="M415.785,45.772 C415.963,52.622 419.656,59.95 429.485,59.95 C439.318,59.95 443.012,52.564 443.131,45.713 C443.247,38.682 439.318,30.817 429.485,30.817 C419.656,30.817 415.604,38.741 415.785,45.772 M450.873,45.594 C450.757,56.376 444.142,67.159 429.485,67.159 C414.832,67.159 408.04,56.616 408.04,45.652 C408.04,34.692 415.071,23.67 429.485,23.67 C443.845,23.67 450.992,34.692 450.873,45.594" fill="#FFFFFF"/>
      <path d="M456.728,24.503 L464.532,24.503 L464.532,66.205 L456.728,66.205 z" fill="#FFFFFF"/>
      <path d="M499.332,24.442 L507.193,24.442 L507.193,66.206 L502.311,66.206 L502.311,66.264 L480.387,38.088 L480.387,66.206 L472.522,66.206 L472.522,24.504 L478.897,24.504 L499.332,50.36 z" fill="#FFFFFF"/>
      <path d="M525.203,31.651 L511.977,31.651 L511.977,24.504 L546.293,24.504 L546.293,31.651 L533.064,31.651 L533.064,66.206 L525.203,66.206 z" fill="#FFFFFF"/>
      <path d="M127.991,92.441 L131.79,92.441 C135.992,92.441 137.659,89.377 137.577,86.364 C137.502,83.483 135.808,80.603 131.79,80.603 L127.991,80.603 z M141.042,86.39 C141.124,91.068 138.268,95.796 131.79,95.796 L124.526,95.796 L124.526,77.299 L131.79,77.299 C138.138,77.299 140.96,81.819 141.042,86.39" fill="#FFFFFF"/>
      <path d="M183.563,95.796 L169.719,95.796 L169.719,77.299 L183.563,77.299 L183.563,80.681 L173.184,80.681 L173.184,84.935 L183.194,84.935 L183.194,88.188 L173.184,88.188 L173.184,92.362 L183.563,92.362 z" fill="#FFFFFF"/>
      <path d="M224.665,81.764 C224.029,80.708 222.286,79.704 220.277,79.704 C217.688,79.704 216.445,80.787 216.445,82.16 C216.445,83.774 218.35,84.221 220.564,84.488 C224.425,84.962 228.02,85.967 228.02,90.377 C228.02,94.501 224.37,96.271 220.251,96.271 C216.471,96.271 213.568,95.11 212.193,91.727 L215.098,90.22 C215.917,92.256 218.057,93.155 220.305,93.155 C222.499,93.155 224.555,92.386 224.555,90.377 C224.555,88.635 222.738,87.921 220.277,87.658 C216.499,87.207 213.007,86.202 213.007,82.055 C213.007,78.248 216.766,76.691 220.169,76.663 C223.051,76.663 226.037,77.484 227.438,80.336 z" fill="#FFFFFF"/>
      <path d="M257.169,77.299 L260.633,77.299 L260.633,95.796 L257.169,95.796 z" fill="#FFFFFF"/>
      <path d="M304.078,81.819 C302.834,80.627 300.99,79.967 299.378,79.967 C295.413,79.967 293.008,82.981 293.008,86.787 C293.008,89.825 294.777,92.967 299.378,92.967 C300.832,92.967 302.096,92.653 303.552,91.488 L303.552,88.212 L298.823,88.212 L298.823,85.096 L306.749,85.096 L306.749,92.889 C304.925,94.976 302.622,96.22 299.378,96.22 C292.428,96.22 289.599,91.649 289.599,86.787 C289.599,81.581 292.85,76.77 299.378,76.77 C301.856,76.77 304.344,77.723 306.244,79.598 z" fill="#FFFFFF"/>
      <path d="M348.192,77.272 L351.677,77.272 L351.677,95.796 L349.511,95.796 L349.511,95.824 L339.788,83.323 L339.788,95.796 L336.296,95.796 L336.296,77.299 L339.125,77.299 L348.192,88.768 z" fill="#FFFFFF"/>
      <path d="M393.01,81.764 C392.381,80.708 390.632,79.704 388.623,79.704 C386.033,79.704 384.797,80.787 384.797,82.16 C384.797,83.774 386.697,84.221 388.917,84.488 C392.778,84.962 396.364,85.967 396.364,90.377 C396.364,94.501 392.723,96.271 388.603,96.271 C384.824,96.271 381.913,95.11 380.539,91.727 L383.444,90.22 C384.264,92.256 386.409,93.155 388.651,93.155 C390.844,93.155 392.907,92.386 392.907,90.377 C392.907,88.635 391.083,87.921 388.623,87.658 C384.844,87.207 381.36,86.202 381.36,82.055 C381.36,78.248 385.111,76.691 388.521,76.663 C391.398,76.663 394.383,77.484 395.784,80.336 z" fill="#FFFFFF"/>
      <path d="M69.144,59.475 C66.247,66.438 59.39,71.061 51.747,71.091 C41.368,71.061 32.925,62.619 32.925,52.273 C32.925,47.244 34.876,42.519 38.415,38.969 C41.956,35.419 46.666,33.458 51.679,33.458 L51.805,33.458 C59.417,33.458 66.237,38.078 69.12,45.054 L103.48,45.057 C99.906,19.256 77.955,0.003 51.733,0 L51.727,0 C25.505,0 3.567,19.246 0,45.047 L8.378,45.047 C11.866,23.998 30.278,8.292 51.727,8.292 C63.685,8.327 74.853,13.044 83.2,21.596 L84.262,22.686 L83.179,23.755 L75.167,31.778 L74.061,32.884 L72.974,31.757 C67.35,25.946 59.817,22.745 51.747,22.745 C43.841,22.745 36.437,25.812 30.872,31.377 C25.303,36.947 22.235,44.361 22.242,52.243 C22.242,68.505 35.477,81.745 51.747,81.745 L51.877,81.745 C59.249,81.745 66.329,78.963 71.809,73.92 L72.892,72.919 L73.937,73.961 L81.946,81.98 L83.07,83.097 L81.922,84.183 C73.78,91.928 63.11,96.193 51.884,96.193 L51.744,96.193 C30.247,96.193 11.849,80.5 8.405,59.468 L0,59.493 C3.547,85.259 25.498,104.488 51.747,104.488 C78.01,104.488 99.947,85.273 103.48,59.509 z" fill="#FFFFFF"/>
      <path d="M61.197,52.246 C61.197,57.467 56.964,61.703 51.74,61.703 C46.516,61.703 42.283,57.467 42.283,52.246 C42.283,47.022 46.516,42.789 51.74,42.789 C56.964,42.789 61.197,47.022 61.197,52.246" fill="#FFFFFF"/>
      <path d="M532.967,89.041 L407.842,89.041 L407.842,86.547 L532.967,86.547 z" fill="#FFFFFF"/>
    </g>
  </g>
</svg>
